<svg width="527" height="128" viewBox="0 0 527 128" fill="none" xmlns="http://www.w3.org/2000/svg">
<path d="M60 10H67V23H70V33H77V59H67V69H70V79H77V128H53V115H50V82H27V128H3V115H0V0H60V10ZM150 10H157V23H160V33H167V128H143V115H140V82H117V128H93V115H90V23H100V0H150V10ZM200 10H207V46H220V23H230V0H250V10H257V36H247V59H237V69H240V79H247V92H250V102H257V128H233V115H230V92H220V82H207V128H183V115H180V0H200V10ZM340 10H347V36H297V46H340V56H347V128H273V115H270V92H320V82H273V69H270V0H340V10ZM380 10H387V46H410V0H430V10H437V128H413V115H410V82H387V128H363V115H360V0H380V10ZM510 10H517V23H520V33H527V128H503V115H500V82H477V128H453V115H450V23H460V0H510V10ZM24 126H6V115H4V127H26V81H50V80H24V126ZM70 81H74V126H56V115H54V127H76V80H70V81ZM114 126H96V115H94V127H116V81H140V80H114V126ZM160 35H164V126H146V115H144V127H166V34H160V35ZM204 126H186V115H184V127H206V81H220V80H204V126ZM250 104H254V126H236V115H234V127H256V103H250V104ZM340 58H344V126H276V115H274V127H346V57H340V58ZM384 126H366V115H364V127H386V81H410V80H384V126ZM430 12H434V126H416V115H414V127H436V11H430V12ZM474 126H456V115H454V127H476V81H500V80H474V126ZM520 35H524V126H506V115H504V127H526V34H520V35ZM20 115H7V125H23V79H50V69H20V115ZM70 115H57V125H73V82H70V115ZM110 115H97V125H113V79H140V69H110V115ZM160 115H147V125H163V36H160V115ZM200 115H187V125H203V79H220V69H200V115ZM250 115H237V125H253V105H250V115ZM340 115H277V125H343V59H340V115ZM380 115H367V125H383V79H410V69H380V115ZM430 115H417V125H433V13H430V115ZM470 115H457V125H473V79H500V69H470V115ZM520 115H507V125H523V36H520V115ZM240 92H243V82H240V92ZM240 81H244V92H246V80H240V81ZM274 81H320V80H276V69H274V81ZM277 79H320V69H277V79ZM70 46H60V69H63V56H73V36H70V46ZM70 35H74V57H64V69H66V58H76V34H70V35ZM250 23H240V46H230V69H233V56H243V33H253V13H250V23ZM250 12H254V34H244V57H234V69H236V58H246V35H256V11H250V12ZM20 46H23V33H50V23H20V46ZM24 46H26V35H50V34H24V46ZM27 46H50V36H27V46ZM110 46H113V33H140V23H110V46ZM114 46H116V35H140V34H114V46ZM117 46H140V36H117V46ZM200 46H203V13H200V46ZM200 12H204V46H206V11H200V12ZM340 23H290V46H293V33H343V13H340V23ZM340 12H344V34H294V46H296V35H346V11H340V12ZM380 46H383V13H380V46ZM380 12H384V46H386V11H380V12ZM470 46H473V33H500V23H470V46ZM474 46H476V35H500V34H474V46ZM477 46H500V36H477V46ZM60 23H63V13H60V23ZM60 12H64V23H66V11H60V12ZM150 23H153V13H150V23ZM150 12H154V23H156V11H150V12ZM510 23H513V13H510V23ZM510 12H514V23H516V11H510V12Z" fill="white"/>
</svg>
